<svg version="1.2" width="712.7mm" height="172.9mm" viewBox="0 0 71270 17290" preserveAspectRatio="xMidYMid" fill-rule="evenodd" stroke-width="28.222" stroke-linejoin="round" xmlns="http://www.w3.org/2000/svg"><defs class="ClipPathGroup"><clipPath id="a" clipPathUnits="userSpaceOnUse"><path d="M0 0h71270v17290H0z"/></clipPath></defs><g class="SlideGroup"><g class="Slide" clip-path="url(#a)"><g class="Page"><g class="Group"><g class="com.sun.star.drawing.LineShape"><path class="BoundingBox" fill="none" d="M70568 13588h107v2805h-107z"/><path fill="none" stroke="#000" stroke-width="106" stroke-linejoin="bevel" d="M70621 13641v2698"/></g><g class="com.sun.star.drawing.LineShape"><path class="BoundingBox" fill="none" d="M70938 13475h333v3031h-333z"/><path fill="none" stroke="#000" stroke-width="331" stroke-linejoin="bevel" d="M71104 13641v2698"/></g><g class="com.sun.star.drawing.LineShape"><path class="BoundingBox" fill="none" d="M71164 1022h107v2805h-107z"/><path fill="none" stroke="#000" stroke-width="106" stroke-linejoin="bevel" d="M71217 1075v2698"/></g><g class="com.sun.star.drawing.LineShape"><path class="BoundingBox" fill="none" d="M54980 13588h107v2805h-107z"/><path fill="none" stroke="#000" stroke-width="106" stroke-linejoin="bevel" d="M55033 13641v2698"/></g><g class="com.sun.star.drawing.LineShape"><path class="BoundingBox" fill="none" d="M38760 13588h107v2805h-107z"/><path fill="none" stroke="#000" stroke-width="106" stroke-linejoin="bevel" d="M38813 13641v2698"/></g><g class="com.sun.star.drawing.LineShape"><path class="BoundingBox" fill="none" d="M53144 1022h107v2805h-107z"/><path fill="none" stroke="#000" stroke-width="106" stroke-linejoin="bevel" d="M53197 1075v2698"/></g><g class="com.sun.star.drawing.LineShape"><path class="BoundingBox" fill="none" d="M38845 1022h107v2805h-107z"/><path fill="none" stroke="#000" stroke-width="106" stroke-linejoin="bevel" d="M38898 1075v2698"/></g><g class="com.sun.star.drawing.LineShape"><path class="BoundingBox" fill="none" d="M21356 13588h107v2805h-107z"/><path fill="none" stroke="#000" stroke-width="106" stroke-linejoin="bevel" d="M21409 13641v2698"/></g><g class="com.sun.star.drawing.LineShape"><path class="BoundingBox" fill="none" d="M20827 1022h107v2805h-107z"/><path fill="none" stroke="#000" stroke-width="106" stroke-linejoin="bevel" d="M20880 1075v2698"/></g><g class="com.sun.star.drawing.LineShape"><path class="BoundingBox" fill="none" d="M55059 13640h16239v55H55059z"/><path fill="none" stroke="#000" stroke-width="53" stroke-linejoin="bevel" d="M55086 13667h16184"/></g><g class="com.sun.star.drawing.LineShape"><path class="BoundingBox" fill="none" d="M55059 14301h16239v55H55059z"/><path fill="none" stroke="#000" stroke-width="53" stroke-linejoin="bevel" d="M55086 14328h16184"/></g><g class="com.sun.star.drawing.LineShape"><path class="BoundingBox" fill="none" d="M55059 14963h16239v55H55059z"/><path fill="none" stroke="#000" stroke-width="53" stroke-linejoin="bevel" d="M55086 14990h16184"/></g><g class="com.sun.star.drawing.LineShape"><path class="BoundingBox" fill="none" d="M55059 15624h16239v55H55059z"/><path fill="none" stroke="#000" stroke-width="53" stroke-linejoin="bevel" d="M55086 15651h16184"/></g><g class="com.sun.star.drawing.LineShape"><path class="BoundingBox" fill="none" d="M55059 16286h16239v55H55059z"/><path fill="none" stroke="#000" stroke-width="53" stroke-linejoin="bevel" d="M55086 16313h16184"/></g><g class="com.sun.star.drawing.LineShape"><path class="BoundingBox" fill="none" d="M38839 13640h16275v55H38839z"/><path fill="none" stroke="#000" stroke-width="53" stroke-linejoin="bevel" d="M38866 13667h16220"/></g><g class="com.sun.star.drawing.LineShape"><path class="BoundingBox" fill="none" d="M38839 14301h16275v55H38839z"/><path fill="none" stroke="#000" stroke-width="53" stroke-linejoin="bevel" d="M38866 14328h16220"/></g><g class="com.sun.star.drawing.LineShape"><path class="BoundingBox" fill="none" d="M38839 14963h16275v55H38839z"/><path fill="none" stroke="#000" stroke-width="53" stroke-linejoin="bevel" d="M38866 14990h16220"/></g><g class="com.sun.star.drawing.LineShape"><path class="BoundingBox" fill="none" d="M38839 15624h16275v55H38839z"/><path fill="none" stroke="#000" stroke-width="53" stroke-linejoin="bevel" d="M38866 15651h16220"/></g><g class="com.sun.star.drawing.LineShape"><path class="BoundingBox" fill="none" d="M38839 16286h16275v55H38839z"/><path fill="none" stroke="#000" stroke-width="53" stroke-linejoin="bevel" d="M38866 16313h16220"/></g><g class="com.sun.star.drawing.LineShape"><path class="BoundingBox" fill="none" d="M53223 1074h18075v55H53223z"/><path fill="none" stroke="#000" stroke-width="53" stroke-linejoin="bevel" d="M53250 1101h18020"/></g><g class="com.sun.star.drawing.LineShape"><path class="BoundingBox" fill="none" d="M53223 1736h18075v55H53223z"/><path fill="none" stroke="#000" stroke-width="53" stroke-linejoin="bevel" d="M53250 1763h18020"/></g><g class="com.sun.star.drawing.LineShape"><path class="BoundingBox" fill="none" d="M53223 2397h18075v55H53223z"/><path fill="none" stroke="#000" stroke-width="53" stroke-linejoin="bevel" d="M53250 2424h18020"/></g><g class="com.sun.star.drawing.LineShape"><path class="BoundingBox" fill="none" d="M53223 3058h18075v55H53223z"/><path fill="none" stroke="#000" stroke-width="53" stroke-linejoin="bevel" d="M53250 3085h18020"/></g><g class="com.sun.star.drawing.LineShape"><path class="BoundingBox" fill="none" d="M53223 3720h18075v55H53223z"/><path fill="none" stroke="#000" stroke-width="53" stroke-linejoin="bevel" d="M53250 3747h18020"/></g><g class="com.sun.star.drawing.LineShape"><path class="BoundingBox" fill="none" d="M38924 1074h14354v55H38924z"/><path fill="none" stroke="#000" stroke-width="53" stroke-linejoin="bevel" d="M38951 1101h14299"/></g><g class="com.sun.star.drawing.LineShape"><path class="BoundingBox" fill="none" d="M38924 1736h14354v55H38924z"/><path fill="none" stroke="#000" stroke-width="53" stroke-linejoin="bevel" d="M38951 1763h14299"/></g><g class="com.sun.star.drawing.LineShape"><path class="BoundingBox" fill="none" d="M38924 2397h14354v55H38924z"/><path fill="none" stroke="#000" stroke-width="53" stroke-linejoin="bevel" d="M38951 2424h14299"/></g><g class="com.sun.star.drawing.LineShape"><path class="BoundingBox" fill="none" d="M38924 3058h14354v55H38924z"/><path fill="none" stroke="#000" stroke-width="53" stroke-linejoin="bevel" d="M38951 3085h14299"/></g><g class="com.sun.star.drawing.LineShape"><path class="BoundingBox" fill="none" d="M38924 3720h14354v55H38924z"/><path fill="none" stroke="#000" stroke-width="53" stroke-linejoin="bevel" d="M38951 3747h14299"/></g><g class="com.sun.star.drawing.LineShape"><path class="BoundingBox" fill="none" d="M21435 13640h17460v55H21435z"/><path fill="none" stroke="#000" stroke-width="53" stroke-linejoin="bevel" d="M21462 13667h17405"/></g><g class="com.sun.star.drawing.LineShape"><path class="BoundingBox" fill="none" d="M21435 14301h17460v55H21435z"/><path fill="none" stroke="#000" stroke-width="53" stroke-linejoin="bevel" d="M21462 14328h17405"/></g><g class="com.sun.star.drawing.LineShape"><path class="BoundingBox" fill="none" d="M21435 14963h17460v55H21435z"/><path fill="none" stroke="#000" stroke-width="53" stroke-linejoin="bevel" d="M21462 14990h17405"/></g><g class="com.sun.star.drawing.LineShape"><path class="BoundingBox" fill="none" d="M21435 15624h17460v55H21435z"/><path fill="none" stroke="#000" stroke-width="53" stroke-linejoin="bevel" d="M21462 15651h17405"/></g><g class="com.sun.star.drawing.LineShape"><path class="BoundingBox" fill="none" d="M21435 16286h17460v55H21435z"/><path fill="none" stroke="#000" stroke-width="53" stroke-linejoin="bevel" d="M21462 16313h17405"/></g><g class="com.sun.star.drawing.LineShape"><path class="BoundingBox" fill="none" d="M20906 1074h18074v55H20906z"/><path fill="none" stroke="#000" stroke-width="53" stroke-linejoin="bevel" d="M20933 1101h18019"/></g><g class="com.sun.star.drawing.LineShape"><path class="BoundingBox" fill="none" d="M20906 1736h18074v55H20906z"/><path fill="none" stroke="#000" stroke-width="53" stroke-linejoin="bevel" d="M20933 1763h18019"/></g><g class="com.sun.star.drawing.LineShape"><path class="BoundingBox" fill="none" d="M20906 2397h18074v55H20906z"/><path fill="none" stroke="#000" stroke-width="53" stroke-linejoin="bevel" d="M20933 2424h18019"/></g><g class="com.sun.star.drawing.LineShape"><path class="BoundingBox" fill="none" d="M20906 3058h18074v55H20906z"/><path fill="none" stroke="#000" stroke-width="53" stroke-linejoin="bevel" d="M20933 3085h18019"/></g><g class="com.sun.star.drawing.LineShape"><path class="BoundingBox" fill="none" d="M20906 3720h18074v55H20906z"/><path fill="none" stroke="#000" stroke-width="53" stroke-linejoin="bevel" d="M20933 3747h18019"/></g><g class="com.sun.star.drawing.LineShape"><path class="BoundingBox" fill="none" d="M-27 13640h21517v55H-27z"/><path fill="none" stroke="#000" stroke-width="53" stroke-linejoin="bevel" d="M0 13667h21462"/></g><g class="com.sun.star.drawing.LineShape"><path class="BoundingBox" fill="none" d="M-27 14301h21517v55H-27z"/><path fill="none" stroke="#000" stroke-width="53" stroke-linejoin="bevel" d="M0 14328h21462"/></g><g class="com.sun.star.drawing.LineShape"><path class="BoundingBox" fill="none" d="M-27 14963h21517v55H-27z"/><path fill="none" stroke="#000" stroke-width="53" stroke-linejoin="bevel" d="M0 14990h21462"/></g><g class="com.sun.star.drawing.LineShape"><path class="BoundingBox" fill="none" d="M-27 15624h21517v55H-27z"/><path fill="none" stroke="#000" stroke-width="53" stroke-linejoin="bevel" d="M0 15651h21462"/></g><g class="com.sun.star.drawing.LineShape"><path class="BoundingBox" fill="none" d="M-27 16286h21517v55H-27z"/><path fill="none" stroke="#000" stroke-width="53" stroke-linejoin="bevel" d="M0 16313h21462"/></g><g class="com.sun.star.drawing.LineShape"><path class="BoundingBox" fill="none" d="M-27 1074h20988v55H-27z"/><path fill="none" stroke="#000" stroke-width="53" stroke-linejoin="bevel" d="M0 1101h20933"/></g><g class="com.sun.star.drawing.LineShape"><path class="BoundingBox" fill="none" d="M-27 1736h20988v55H-27z"/><path fill="none" stroke="#000" stroke-width="53" stroke-linejoin="bevel" d="M0 1763h20933"/></g><g class="com.sun.star.drawing.LineShape"><path class="BoundingBox" fill="none" d="M-27 2397h20988v55H-27z"/><path fill="none" stroke="#000" stroke-width="53" stroke-linejoin="bevel" d="M0 2424h20933"/></g><g class="com.sun.star.drawing.LineShape"><path class="BoundingBox" fill="none" d="M-27 3058h20988v55H-27z"/><path fill="none" stroke="#000" stroke-width="53" stroke-linejoin="bevel" d="M0 3085h20933"/></g><g class="com.sun.star.drawing.LineShape"><path class="BoundingBox" fill="none" d="M-27 3720h20988v55H-27z"/><path fill="none" stroke="#000" stroke-width="53" stroke-linejoin="bevel" d="M0 3747h20933"/></g><g class="com.sun.star.drawing.LineShape"><path class="BoundingBox" fill="none" d="M67461 810h87v2195h-87z"/><path fill="none" stroke="#000" stroke-width="86" stroke-linejoin="bevel" stroke-linecap="round" d="M67504 2961V853"/></g><g class="com.sun.star.drawing.LineShape"><path class="BoundingBox" fill="none" d="M60168 810h87v2195h-87z"/><path fill="none" stroke="#000" stroke-width="86" stroke-linejoin="bevel" stroke-linecap="round" d="M60211 2961V853"/></g><g class="com.sun.star.drawing.LineShape"><path class="BoundingBox" fill="none" d="M62973 1058h87v2278h-87z"/><path fill="none" stroke="#000" stroke-width="86" stroke-linejoin="bevel" stroke-linecap="round" d="M63016 3292V1101"/></g><g class="com.sun.star.drawing.LineShape"><path class="BoundingBox" fill="none" d="M47254 15051h87v2050h-87z"/><path fill="none" stroke="#000" stroke-width="86" stroke-linejoin="bevel" stroke-linecap="round" d="M47297 15094v1963"/></g><g class="com.sun.star.drawing.LineShape"><path class="BoundingBox" fill="none" d="M39552 14720h87v2133h-87z"/><path fill="none" stroke="#000" stroke-width="86" stroke-linejoin="bevel" stroke-linecap="round" d="M39595 14763v2046"/></g><g class="com.sun.star.drawing.LineShape"><path class="BoundingBox" fill="none" d="M46366 2485h87v2050h-87z"/><path fill="none" stroke="#000" stroke-width="86" stroke-linejoin="bevel" stroke-linecap="round" d="M46409 2528v1963"/></g><g class="com.sun.star.drawing.LineShape"><path class="BoundingBox" fill="none" d="M54696 562h87v2112h-87z"/><path fill="none" stroke="#000" stroke-width="86" stroke-linejoin="bevel" stroke-linecap="round" d="M54739 2630V605"/></g><g class="com.sun.star.drawing.LineShape"><path class="BoundingBox" fill="none" d="M40445 562h87v2135h-87z"/><path fill="none" stroke="#000" stroke-width="86" stroke-linejoin="bevel" stroke-linecap="round" d="M40488 2653V605"/></g><g class="com.sun.star.drawing.LineShape"><path class="BoundingBox" fill="none" d="M29545 14740h87v2113h-87z"/><path fill="none" stroke="#000" stroke-width="86" stroke-linejoin="bevel" stroke-linecap="round" d="M29588 14783v2026"/></g><g class="com.sun.star.drawing.LineShape"><path class="BoundingBox" fill="none" d="M34153 14410h87v2195h-87z"/><path fill="none" stroke="#000" stroke-width="86" stroke-linejoin="bevel" stroke-linecap="round" d="M34196 14453v2108"/></g><g class="com.sun.star.drawing.LineShape"><path class="BoundingBox" fill="none" d="M22147 15051h87v2050h-87z"/><path fill="none" stroke="#000" stroke-width="86" stroke-linejoin="bevel" stroke-linecap="round" d="M22190 15094v1963"/></g><g class="com.sun.star.drawing.LineShape"><path class="BoundingBox" fill="none" d="M27851 810h87v2195h-87z"/><path fill="none" stroke="#000" stroke-width="86" stroke-linejoin="bevel" stroke-linecap="round" d="M27894 2961V853"/></g><g class="com.sun.star.drawing.LineShape"><path class="BoundingBox" fill="none" d="M30656 1058h87v2278h-87z"/><path fill="none" stroke="#000" stroke-width="86" stroke-linejoin="bevel" stroke-linecap="round" d="M30699 3292V1101"/></g><g class="com.sun.star.drawing.LineShape"><path class="BoundingBox" fill="none" d="M35143 810h87v2195h-87z"/><path fill="none" stroke="#000" stroke-width="86" stroke-linejoin="bevel" stroke-linecap="round" d="M35186 2961V853"/></g><g class="com.sun.star.drawing.LineShape"><path class="BoundingBox" fill="none" d="M22379 562h87v2112h-87z"/><path fill="none" stroke="#000" stroke-width="86" stroke-linejoin="bevel" stroke-linecap="round" d="M22422 2630V605"/></g><g class="com.sun.star.drawing.LineShape"><path class="BoundingBox" fill="none" d="M6732 13128h87v2135h-87z"/><path fill="none" stroke="#000" stroke-width="86" stroke-linejoin="bevel" stroke-linecap="round" d="M6775 15219v-2048"/></g><g class="com.sun.star.drawing.LineShape"><path class="BoundingBox" fill="none" d="M14449 13128h87v2135h-87z"/><path fill="none" stroke="#000" stroke-width="86" stroke-linejoin="bevel" stroke-linecap="round" d="M14492 15219v-2048"/></g><g class="com.sun.star.drawing.LineShape"><path class="BoundingBox" fill="none" d="M8127 562h87v2135h-87z"/><path fill="none" stroke="#000" stroke-width="86" stroke-linejoin="bevel" stroke-linecap="round" d="M8170 2653V605"/></g><g class="com.sun.star.drawing.LineShape"><path class="BoundingBox" fill="none" d="M14049 2485h87v2050h-87z"/><path fill="none" stroke="#000" stroke-width="86" stroke-linejoin="bevel" stroke-linecap="round" d="M14092 2528v1963"/></g><g class="com.sun.star.drawing.ClosedBezierShape"><path class="BoundingBox" fill="none" d="M55747 14955h1311v731h-1311z"/><path d="M56181 15088c-31 41-46 97-46 168 0 81 21 151 64 209 43 57 91 97 142 119 47 23 96 34 148 34 60 0 105-22 136-65 30-43 44-99 44-168 0-81-21-151-64-209-43-55-90-95-140-119-50-22-100-34-150-34-62 0-106 22-134 65zm688-23c125 72 188 157 188 256 0 105-65 191-194 258-129 71-282 106-460 106-182 0-337-36-465-109-127-72-191-157-191-255 0-105 65-192 196-259 130-70 283-106 460-106 186 0 341 37 466 109z"/></g><g class="com.sun.star.drawing.ClosedBezierShape"><path class="BoundingBox" fill="none" d="M66676 2720h872v731h-872z"/><path d="M67467 2786c53 46 80 105 80 175 0 119-61 230-183 334-125 103-257 155-399 155-82 0-152-22-209-65-53-46-80-105-80-176 0-118 62-229 186-333 121-103 253-155 395-155 83 0 153 22 210 65z"/></g><g class="com.sun.star.drawing.ClosedBezierShape"><path class="BoundingBox" fill="none" d="M59383 2720h872v731h-872z"/><path d="M60174 2786c54 46 80 105 80 175 0 119-61 230-183 334-124 103-257 155-398 155-82 0-152-22-209-65-54-46-80-105-80-176 0-118 62-229 186-333 121-103 252-155 395-155 83 0 153 22 209 65z"/></g><g class="com.sun.star.drawing.ClosedBezierShape"><path class="BoundingBox" fill="none" d="M62188 3052h872v729h-872z"/><path d="M62979 3116c53 47 80 106 80 176 0 119-61 230-183 333-124 104-257 155-398 155-83 0-153-21-209-64-54-47-81-105-81-176 0-119 63-230 186-333 121-103 253-155 396-155 82 0 152 21 209 64z"/></g><g class="com.sun.star.drawing.ClosedBezierShape"><path class="BoundingBox" fill="none" d="M47254 14626h920v730h-920z"/><path d="M48055 14742c-23-22-49-34-78-34-51 0-155 52-312 155-163 105-262 180-297 225-20 24-29 49-29 75 0 29 11 54 34 75 20 22 46 33 77 33 50 0 155-51 315-155 159-103 257-178 295-225 19-22 28-47 28-74 0-30-11-54-33-75zm118 75c0 62-18 134-54 217-36 81-84 143-144 186-133 89-299 134-499 134-148 0-222-64-222-191 0-57 18-128 54-214 34-83 83-146 144-189 133-90 300-134 499-134 149 0 222 63 222 191z"/></g><g class="com.sun.star.drawing.ClosedBezierShape"><path class="BoundingBox" fill="none" d="M39552 14295h921v729h-921z"/><path d="M40353 14411c-23-22-49-33-78-33-51 0-156 51-313 155-161 105-261 180-297 225-19 24-28 48-28 74 0 30 11 55 34 75 20 23 46 34 77 34 50 0 155-52 316-155 158-104 256-179 294-225 19-23 28-47 28-75 0-29-11-54-33-75zm119 75c0 62-19 134-55 217-36 81-84 143-144 186-133 90-299 134-499 134-148 0-222-63-222-191 0-56 18-128 54-214 34-83 82-146 145-189 132-89 299-134 499-134 147 0 222 64 222 191z"/></g><g class="com.sun.star.drawing.ClosedBezierShape"><path class="BoundingBox" fill="none" d="M46366 2060h921v729h-921z"/><path d="M47168 2176c-23-22-49-34-78-34-52 0-156 52-313 155-162 105-261 180-297 225-19 24-28 49-28 75 0 29 11 54 33 75 21 22 47 34 78 34 50 0 155-52 315-156 159-103 257-178 295-224 19-23 28-48 28-75 0-29-11-54-33-75zm118 75c0 62-18 134-54 217-36 81-84 143-145 186-132 89-298 134-498 134-148 0-223-63-223-191 0-57 19-128 55-214 34-83 82-146 144-189 133-89 300-134 499-134 148 0 222 63 222 191z"/></g><g class="com.sun.star.drawing.ClosedBezierShape"><path class="BoundingBox" fill="none" d="M53912 2391h871v730h-871z"/><path d="M54702 2455c54 47 80 105 80 176 0 118-61 230-183 333-124 103-257 155-398 155-83 0-152-22-209-65-54-46-80-105-80-175 0-119 62-230 186-333 121-104 252-155 395-155 83 0 153 21 209 64z"/></g><g class="com.sun.star.drawing.ClosedBezierShape"><path class="BoundingBox" fill="none" d="M39612 2391h922v730h-922z"/><path d="M40414 2507c-23-23-49-34-78-34-52 0-156 52-313 155-162 105-261 180-297 225-19 24-28 49-28 75 0 29 11 54 34 75 20 22 46 33 77 33 50 0 155-51 315-155 159-103 257-178 295-225 18-22 28-47 28-74 0-30-11-55-33-75zm118 75c0 61-18 134-54 217-36 81-84 143-145 186-132 89-298 134-498 134-148 0-223-64-223-191 0-57 18-128 54-215 35-82 83-145 145-188 133-90 299-134 499-134 148 0 222 63 222 191z"/></g><g class="com.sun.star.drawing.ClosedBezierShape"><path class="BoundingBox" fill="none" d="M29545 14295h871v729h-871z"/><path d="M30335 14359c54 47 80 106 80 176 0 119-61 230-183 333-124 104-257 155-398 155-83 0-152-21-209-64-54-47-80-105-80-176 0-119 62-230 186-333 120-103 252-155 395-155 82 0 152 21 209 64z"/></g><g class="com.sun.star.drawing.ClosedBezierShape"><path class="BoundingBox" fill="none" d="M34153 13963h872v731h-872z"/><path d="M34944 14029c53 46 80 105 80 175 0 119-61 230-184 334-123 103-256 155-397 155-83 0-153-22-210-65-53-46-80-105-80-176 0-118 62-229 186-333 121-103 252-155 395-155 83 0 153 22 210 65z"/></g><g class="com.sun.star.drawing.ClosedBezierShape"><path class="BoundingBox" fill="none" d="M22147 14626h921v730h-921z"/><path d="M22949 14742c-23-22-49-34-78-34-52 0-156 52-313 155-162 105-261 180-297 225-19 24-29 49-29 75 0 29 12 54 34 75 21 22 47 33 78 33 50 0 155-51 315-155 159-103 257-178 294-225 19-22 29-47 29-74 0-30-11-54-33-75zm118 75c0 62-18 134-54 217-36 81-84 143-145 186-132 89-298 134-498 134-149 0-223-64-223-191 0-57 18-128 54-214 35-83 83-146 145-189 133-90 299-134 499-134 148 0 222 63 222 191z"/></g><g class="com.sun.star.drawing.ClosedBezierShape"><path class="BoundingBox" fill="none" d="M27066 2720h872v731h-872z"/><path d="M27857 2786c53 46 80 105 80 175 0 119-61 230-183 334-124 103-257 155-398 155-83 0-153-22-210-65-53-46-80-105-80-176 0-118 62-229 186-333 121-103 252-155 395-155 83 0 153 22 210 65z"/></g><g class="com.sun.star.drawing.ClosedBezierShape"><path class="BoundingBox" fill="none" d="M29871 3052h872v729h-872z"/><path d="M30662 3116c53 47 80 106 80 176 0 119-62 230-184 333-124 104-256 155-398 155-82 0-152-21-209-64-53-47-80-105-80-176 0-119 62-230 186-333 121-103 252-155 395-155 83 0 153 21 210 64z"/></g><g class="com.sun.star.drawing.ClosedBezierShape"><path class="BoundingBox" fill="none" d="M34358 2720h872v731h-872z"/><path d="M35149 2786c53 46 80 105 80 175 0 119-61 230-183 334-124 103-257 155-398 155-83 0-153-22-209-65-54-46-81-105-81-176 0-118 63-229 186-333 121-103 253-155 396-155 82 0 152 22 209 65z"/></g><g class="com.sun.star.drawing.ClosedBezierShape"><path class="BoundingBox" fill="none" d="M21594 2391h872v730h-872z"/><path d="M22385 2455c53 47 80 105 80 176 0 118-61 230-183 333-124 103-257 155-399 155-82 0-152-22-209-65-53-46-80-105-80-175 0-119 62-230 186-333 121-104 253-155 395-155 83 0 153 21 210 64z"/></g><g class="com.sun.star.drawing.ClosedBezierShape"><path class="BoundingBox" fill="none" d="M13616 14955h921v731h-921z"/><path d="M14417 15073c-23-23-48-34-78-34-51 0-155 52-312 155-162 105-261 180-297 225-19 24-29 49-29 75 0 29 11 54 34 75 21 22 46 33 77 33 50 0 155-52 316-155 158-103 256-178 294-225 19-22 29-47 29-75 0-29-12-54-34-74zm119 74c0 62-18 135-54 217-37 81-85 143-145 186-133 90-299 135-499 135-148 0-222-64-222-191 0-57 18-128 54-215 35-82 83-145 145-188 133-90 299-135 499-135 148 0 222 64 222 191z"/></g><g class="com.sun.star.drawing.ClosedBezierShape"><path class="BoundingBox" fill="none" d="M5900 14955h920v731h-920z"/><path d="M6701 15073c-23-23-49-34-78-34-52 0-156 52-313 155-162 105-261 180-297 225-19 24-28 49-28 75 0 29 11 54 34 75 20 22 46 33 77 33 50 0 155-52 315-155 159-103 257-178 295-225 19-22 28-47 28-75 0-29-11-54-33-74zm118 74c0 62-18 135-54 217-36 81-84 143-145 186-132 90-298 135-498 135-148 0-222-64-222-191 0-57 18-128 54-215 34-82 82-145 144-188 133-90 300-135 499-135 148 0 222 64 222 191z"/></g><g class="com.sun.star.drawing.ClosedBezierShape"><path class="BoundingBox" fill="none" d="M7295 2391h921v730h-921z"/><path d="M8096 2507c-23-23-49-34-78-34-51 0-155 52-312 155-162 105-261 180-298 225-19 24-28 49-28 75 0 29 11 54 34 75 20 22 46 33 77 33 50 0 155-51 316-155 158-103 256-178 294-225 19-22 28-47 28-74 0-30-11-55-33-75zm119 75c0 61-18 134-55 217-36 81-84 143-144 186-133 89-299 134-499 134-148 0-222-64-222-191 0-57 18-128 54-215 34-82 83-145 145-188 132-90 299-134 499-134 148 0 222 63 222 191z"/></g><g class="com.sun.star.drawing.ClosedBezierShape"><path class="BoundingBox" fill="none" d="M14049 2060h921v729h-921z"/><path d="M14850 2176c-23-22-48-34-78-34-51 0-155 52-312 155-162 105-261 180-297 225-19 24-29 49-29 75 0 29 11 54 34 75 21 22 46 34 77 34 50 0 155-52 316-156 158-103 256-178 294-224 19-23 28-48 28-75 0-29-11-54-33-75zm119 75c0 62-18 134-54 217-37 81-85 143-145 186-133 89-299 134-499 134-148 0-222-63-222-191 0-57 18-128 54-214 34-83 83-146 145-189 133-89 299-134 499-134 148 0 222 63 222 191z"/></g><g class="com.sun.star.drawing.ClosedBezierShape"><path class="BoundingBox" fill="none" d="M535 12566h1662v4727H535z"/><path d="M1516 14974c7-1 13-2 18-2 193 0 352 68 476 204 124 134 186 291 186 470 0 222-92 403-277 543-48 38-111 69-188 93 8 112 13 202 13 271 0 14-2 64-6 150-6 160-62 299-165 416-100 115-224 173-372 173-139 0-258-49-356-147-99-100-148-221-148-362 0-74 29-137 86-189 58-51 126-77 203-77 69 0 127 27 174 80 48 50 72 112 72 186 0 67-24 125-72 173-49 48-106 72-174 72-27 0-54-5-79-15 75 112 176 168 302 168 119 0 216-48 292-145 79-100 122-216 129-349 3-82 5-130 5-142 0-96-3-175-10-237-86 14-163 20-230 20-240 0-444-94-612-284-166-191-248-419-248-682 0-55 5-111 15-168 10-46 23-97 39-152 8-32 32-82 70-151 13-20 29-46 46-77s29-52 36-62c17-34 51-81 101-140 14-15 28-32 43-51 14-19 27-34 37-47 10-12 18-21 23-28s44-53 117-137c17-17 33-36 50-55 16-20 30-36 40-47s18-19 23-24c-62-205-101-369-116-491-12-99-18-233-18-404 0-149 34-290 103-421 67-136 161-247 282-333 7-5 15-8 25-8 13 0 21 3 27 8 92 112 172 257 240 437 69 179 103 342 103 488 0 166-39 321-119 465-89 154-205 312-346 476 36 113 84 291 145 534h15zm414 1034c55-76 82-161 82-256 0-122-41-231-124-326-84-98-192-153-323-165 74 364 126 668 155 915 90-33 160-89 210-168zm-1003 21c141 125 300 188 476 188 72 0 142-5 211-15-27-262-81-576-163-941-98 11-176 45-234 103-57 61-86 129-86 205 0 131 70 236 210 317 12 13 17 26 17 39 0 14-5 27-17 39-11 12-24 18-39 18-2 0-10-2-23-5-99-53-174-122-228-207-50-89-75-180-75-271 0-119 37-227 111-323 78-97 178-159 302-186-48-193-87-344-118-452-28 31-61 68-100 112-38 44-61 70-68 79-62 81-109 144-142 189-59 81-102 150-130 209-29 65-55 137-77 214-22 74-33 154-33 238 0 171 68 320 206 450zm352-2804c-76 123-114 254-114 395 0 124 31 291 93 502 124-150 217-289 279-416 65-135 98-275 98-421 0-111-17-222-52-334-129 64-230 155-304 274z"/></g><g class="com.sun.star.drawing.ClosedBezierShape"><path class="BoundingBox" fill="none" d="M535 0h1662v4727H535z"/><path d="M1516 2408c7-1 13-2 18-2 193 0 352 68 476 204 124 134 186 291 186 470 0 222-92 403-277 543-48 38-111 69-188 93 8 112 13 202 13 271 0 14-2 64-6 150-6 160-62 299-165 416-100 115-224 173-372 173-139 0-258-49-356-147-99-100-148-221-148-362 0-74 29-137 86-189 58-51 126-77 203-77 69 0 127 27 174 80 48 50 72 112 72 186 0 67-24 125-72 173-49 48-106 72-174 72-27 0-54-5-79-15 75 112 176 168 302 168 119 0 216-48 292-145 79-100 122-216 129-349 3-82 5-130 5-141 0-97-3-176-10-238-86 14-163 21-230 21-240 0-444-95-612-285-166-191-248-419-248-682 0-55 5-111 15-168 10-46 23-97 39-152 8-31 32-81 70-150 13-21 29-47 46-78s29-52 36-62c17-34 51-81 101-139 14-16 28-33 43-52 14-19 27-34 37-46 10-13 18-22 23-29s44-52 117-137c17-17 33-36 50-55 16-20 30-36 40-47s18-19 23-24c-62-205-101-369-116-491-12-98-18-233-18-403 0-150 34-291 103-422 67-135 161-247 282-333 7-5 15-8 25-8 13 0 21 3 27 8 92 112 172 258 240 437 69 179 103 342 103 488 0 166-39 321-119 465-89 154-205 312-346 476 36 113 84 292 145 534h15zm414 1034c55-76 82-161 82-256 0-122-41-231-124-325-84-99-192-154-323-166 74 364 126 669 155 915 90-33 160-89 210-168zm-1003 21c141 125 300 188 476 188 72 0 142-5 211-15-27-262-81-576-163-941-98 11-176 45-234 104-57 60-86 128-86 204 0 131 70 237 210 318 12 12 17 25 17 38 0 14-5 27-17 39-11 12-24 18-39 18-2 0-10-2-23-5-99-53-174-122-228-207-50-89-75-180-75-271 0-119 37-227 111-323 78-96 178-158 302-186-48-193-87-344-118-452-28 31-61 68-100 112-38 44-61 70-68 79-62 81-109 144-142 189-59 81-102 150-130 209-29 65-55 137-77 214-22 75-33 154-33 238 0 171 68 321 206 450zm352-2804c-76 123-114 254-114 395 0 124 31 292 93 502 124-150 217-289 279-416 65-134 98-275 98-421 0-110-17-222-52-333-129 63-230 154-304 273z"/></g><g class="com.sun.star.drawing.ClosedBezierShape"><path class="BoundingBox" fill="none" d="M3516 13667h731v1985h-731z"/><path d="M4039 15533c-32 0-49-17-49-50v-382l-219 83v418c0 33-17 49-50 49-32 0-49-16-49-49v-385l-82 31c-2 2-9 3-21 3-14 0-26-5-36-16-11-10-16-22-16-36v-160c0-26 11-42 34-49l121-41v-424l-82 28c-2 2-9 3-21 3-14 0-26-5-36-16-11-10-16-22-16-36v-160c0-24 11-40 34-47l121-46v-416c0-33 17-49 49-49 33 0 50 16 50 49v382l219-82v-419c0-33 17-49 49-49 33 0 49 16 49 49v385l86-31c1-2 7-2 18-2 12 0 25 5 38 15 11 10 16 23 16 36v160c0 25-12 41-36 49l-122 42v424l86-29c1-2 7-2 18-2 12 0 25 5 38 15 11 10 16 22 16 36v161c0 22-12 37-36 46l-122 47v415c0 33-16 50-49 50zm-268-1047v424l219-78v-423l-219 77z"/></g><g class="com.sun.star.drawing.ClosedBezierShape"><path class="BoundingBox" fill="none" d="M2856 12675h730v1985h-730z"/><path d="M3378 14541c-33 0-49-17-49-50v-382l-220 83v418c0 33-16 49-49 49s-49-16-49-49v-385l-83 31c-1 2-8 3-20 3-14 0-26-6-37-16-10-10-15-22-15-36v-160c0-26 11-42 33-49l122-42v-423l-83 28c-1 2-8 3-20 3-14 0-26-5-37-16-10-10-15-22-15-36v-160c0-24 11-40 33-47l122-46v-416c0-33 16-49 49-49s49 16 49 49v382l220-83v-418c0-33 16-49 49-49 32 0 49 16 49 49v385l85-31c2-2 8-3 18-3 12 0 25 6 39 16 10 10 16 22 16 36v160c0 24-12 41-37 49l-121 42v423l85-28c2-2 8-3 18-3 12 0 25 6 39 16 10 10 16 22 16 36v160c0 23-12 38-37 47l-121 46v416c0 33-17 50-49 50zm-269-1047v424l220-78v-423l-220 77z"/></g><g class="com.sun.star.drawing.ClosedBezierShape"><path class="BoundingBox" fill="none" d="M3516 1101h731v1985h-731z"/><path d="M4039 2967c-32 0-49-17-49-49v-383l-219 83v418c0 33-17 49-50 49-32 0-49-16-49-49v-385l-82 31c-2 2-9 3-21 3-14 0-26-5-36-16-11-10-16-22-16-36v-160c0-26 11-42 34-49l121-41v-424l-82 28c-2 2-9 3-21 3-14 0-26-5-36-16-11-10-16-22-16-36v-160c0-24 11-40 34-46l121-47v-416c0-33 17-49 49-49 33 0 50 16 50 49v382l219-82v-419c0-32 17-49 49-49 33 0 49 17 49 49v385l86-31c1-1 7-2 18-2 12 0 25 5 38 15 11 11 16 23 16 36v160c0 25-12 41-36 50l-122 41v424l86-29c1-2 7-2 18-2 12 0 25 5 38 15 11 11 16 23 16 36v161c0 22-12 37-36 46l-122 47v416c0 32-16 49-49 49zm-268-1047v424l219-78v-423l-219 77z"/></g><g class="com.sun.star.drawing.ClosedBezierShape"><path class="BoundingBox" fill="none" d="M2856 109h730v1985h-730z"/><path d="M3378 1975c-33 0-49-17-49-50v-382l-220 83v418c0 33-16 49-49 49s-49-16-49-49v-385l-83 31c-1 2-8 3-20 3-14 0-26-5-37-16-10-10-15-22-15-36v-160c0-26 11-42 33-49l122-41V967l-83 28c-1 2-8 3-20 3-14 0-26-5-37-16-10-10-15-22-15-36V786c0-24 11-40 33-47l122-46V277c0-33 16-49 49-49s49 16 49 49v382l220-82V158c0-33 16-49 49-49 32 0 49 16 49 49v385l85-31c2-2 8-2 18-2 12 0 25 5 39 15 10 10 16 23 16 36v160c0 25-12 41-37 49l-121 42v424l85-29c2-2 8-2 18-2 12 0 25 5 39 15 10 10 16 22 16 36v161c0 22-12 37-37 46l-121 47v415c0 33-17 50-49 50zM3109 928v424l220-78V851l-220 77z"/></g><g class="com.sun.star.drawing.ClosedBezierShape"><path class="BoundingBox" fill="none" d="M4911 1096h1066v1327H4911z"/><path d="M5642 1114c36-12 60-18 70-18 12 0 21 4 28 11 6 5 9 11 11 18 0 3-2 8-6 15l-751 874h441v-347c0-22 6-41 18-57 21-17 38-27 52-31 22-10 50-34 83-72 27-31 60-85 98-163 5-10 13-15 23-15 21 0 33 12 36 36v649h189c24 0 38 13 42 38 0 26-14 39-42 39h-189v21c0 69 18 127 52 175 40 49 86 73 140 73 20 0 31 10 31 31 0 20-11 31-31 31-36 0-95-5-176-16-74-12-132-18-173-18-43 0-101 6-173 18-78 11-135 16-173 16-21 0-31-11-31-31 0-21 10-31 31-31 53 0 99-24 139-73 36-50 54-108 54-175v-21h-441c-30 0-50-7-62-21-14-10-21-24-21-41 0-5 13-23 39-54 29-35 60-77 93-127 38-58 74-119 108-181 38-70 68-151 91-243 25-93 38-187 38-284 0-27 12-41 37-41 5 0 16 3 33 8 5 1 16 4 33 7 16 4 29 7 39 11 32 5 61 7 89 7 51 0 95-6 131-18z"/></g><g class="com.sun.star.drawing.ClosedBezierShape"><path class="BoundingBox" fill="none" d="M4911 2424h1066v1326H4911z"/><path d="M5642 2442c36-12 60-18 70-18 12 0 21 3 28 10 6 5 9 11 11 18 0 3-2 9-6 16l-751 873h441v-346c0-23 6-42 18-57 21-17 38-28 52-31 22-11 50-35 83-73 27-31 60-85 98-162 5-11 13-16 23-16 21 0 33 12 36 36v649h189c24 0 38 13 42 39 0 25-14 38-42 38h-189v21c0 69 18 128 52 176 40 48 86 72 140 72 20 0 31 10 31 31s-11 31-31 31c-36 0-95-5-176-15-74-12-132-18-173-18-43 0-101 6-173 18-78 10-135 15-173 15-21 0-31-10-31-31s10-31 31-31c53 0 99-24 139-72 36-50 54-109 54-176v-21h-441c-30 0-50-6-62-20-14-10-21-24-21-42 0-5 13-23 39-54 29-34 60-76 93-126 38-59 74-119 108-181 38-71 68-152 91-243 25-93 38-188 38-284 0-28 12-42 37-42 5 0 16 3 33 8 5 2 16 4 33 8 16 3 29 7 39 10 32 5 61 8 89 8 51 0 95-6 131-18z"/></g><g class="com.sun.star.drawing.ClosedBezierShape"><path class="BoundingBox" fill="none" d="M60169 853h636v1991h-636z"/><path d="M60169 853h82c0 98 19 196 57 295 42 107 87 200 137 279 36 57 91 144 163 261 55 89 102 183 140 281 37 98 56 197 56 295 0 179-37 362-111 548-14 20-30 31-49 31-17 0-32-7-46-21-11-10-16-23-16-39v-13c74-170 111-339 111-506 0-86-26-179-78-279-51-102-103-183-157-243-61-71-129-146-207-227h-82V853z"/></g><g class="com.sun.star.drawing.ClosedBezierShape"><path class="BoundingBox" fill="none" d="M27851 853h637v1991h-637z"/><path d="M27851 853h83c0 98 19 196 57 295 41 107 87 200 137 279 36 57 90 144 162 261 56 89 102 183 140 281s57 197 57 295c0 179-37 362-112 548-13 20-30 31-49 31-17 0-32-7-46-21-10-10-16-23-16-39v-13c74-170 111-339 111-506 0-86-25-179-77-279-52-102-104-183-158-243-60-71-129-146-206-227h-83V853z"/></g><g class="com.sun.star.drawing.ClosedBezierShape"><path class="BoundingBox" fill="none" d="M55014 2605h302v301h-302z"/><path d="M55014 2755c0-42 15-77 44-106 29-30 65-44 106-44s77 14 106 44c29 29 44 64 44 106 0 41-15 76-44 106-29 29-65 44-106 44s-77-15-106-44c-29-30-44-65-44-106z"/></g><g class="com.sun.star.drawing.ClosedBezierShape"><path class="BoundingBox" fill="none" d="M22696 2605h301v301h-301z"/><path d="M22696 2755c0-42 15-77 44-106 30-30 65-44 106-44 42 0 77 14 106 44 30 29 44 64 44 106 0 41-14 76-44 106-29 29-64 44-106 44-41 0-76-15-106-44-29-30-44-65-44-106z"/></g></g></g></g></g></svg>